<svg xmlns="http://www.w3.org/2000/svg" xml:space="preserve" style="fill-rule:evenodd;clip-rule:evenodd;stroke-linejoin:round;stroke-miterlimit:2" viewBox="0 0 67 67"><path d="M0 0h66.67v66.67H0z" style="fill:#59f;fill-rule:nonzero"/><path d="M61.9 5.56V61.1H4.77V5.56h57.15M66.67 0H0v66.67h66.67V0Z" style="fill-opacity:.2;fill-rule:nonzero"/><path d="M47.62 44.21h-7.05L26.95 29.6V44.2H19.1V17.95h7.03L39.72 32.5V17.95h7.9v26.26Zm-6.76-34.1c0 1.29-.19 2.38-.56 3.3a4 4 0 0 1-3.9 2.77c-.4-.01-.83-.07-1.3-.2-.46-.13-1.1-.34-1.94-.64l-1.79-.63a3.22 3.22 0 0 0-.96-.17c-.88 0-1.4.54-1.55 1.63h-3.01c0-1.38.23-2.52.68-3.42a4.8 4.8 0 0 1 1.72-2c.7-.43 1.37-.64 2.01-.64.7 0 1.8.27 3.3.81l1.25.46.9.3c.27.08.48.11.62.11.48 0 .84-.17 1.09-.52.24-.34.36-.73.36-1.16h3.07Z" style="fill:#112a4f;fill-rule:nonzero"/><path d="M47.62 40.64 28.57 61.1h33.34v-6.66L47.6 40.64Z" style="fill:#e9f2ff;fill-rule:nonzero"/><path d="M4.76 45.88V61.1h42.86L19.05 30.16 4.76 45.88Z" style="fill:#acf;fill-rule:nonzero"/></svg>