<svg xmlns="http://www.w3.org/2000/svg" xml:space="preserve" viewBox="0 0 320 320"><path fill="#447ACC" d="M3 1h318v320c-106 0-212 0-318.5-.5-.5-73.3-.5-146.2-.5-219 0-8.9-.1-17.7 0-26.5 0 0 .2 0 .4-.4.3-2.4.6-4.3.6-6.3V1m226 295.8h68.7l.1-33.3.2-5V34.6c0-6.7 0-6.7-7-6.7H31.1C24 28 24 28 24 35v182c0 2 .3 4.2.3 7.2 0 22.2 0 44.3-.2 66.5-.1 5 1.2 6.4 6.3 6.4 64-.2 127.9-.1 191.8-.1 2 0 4-.3 6.9-.2z"/><path fill="#8AACDD" d="M1.9 75v245.5c-.2-1-.9-2.5-.9-4 0-80.2 0-160.4.2-241 .2-.5.7-.5.7-.5z"/><path fill="#6F91D2" d="M2 75h-.8C1 50.3 1 25.7 1.5 1.5c.6 24.8.6 49 .7 73.4l-.3.1z"/><path fill="#3273CA" d="M2.4 74.6C2 50.6 2 26.3 2 1.5c0-.5.5-.5.8-.5.2 22.4.2 44.9.2 67.3 0 2-.3 4-.6 6.3z"/><path fill="#5599FE" d="M24.5 223.4c-.2-2.2-.4-4.3-.4-6.5L24 35c0-7 0-7 7.1-7h260c7 0 7 0 7 6.6l-.1 224c0 1.6-.1 3.3-.6 5.3a5818.3 5818.3 0 0 1-67.6-64.5c-2.2 2-4 3.4-5.8 4.4-.1-14.9-.1-29.3.3-43.8 13.8 2.2 25.5-5.6 27.6-18 2.1-12.5-5.6-24.1-18-26.5-3.1-.6-6.5-.1-10-.7-.1-5-.3-9.8-.2-14.4.2-3.4-1-4.8-4.5-4.7-5.5.3-11 .3-16.5 0-4.5-.3-6 1.1-6 5.8.2 27.2.1 54.3 0 81.5 0 1.9 0 3.7-.2 5.5-2-1.2-3-2.5-3.8-3.8-16.5-26.9-33.1-53.6-49.2-80.7-3.7-6-7.5-9.6-14.9-8.3-2.7.5-5.6 0-8.5 0-10.1 0-10 0-10.1 10 0 20.5-.2 41-.5 61.3A2725 2725 0 0 1 93 149.8c-1.2 1-2 1.5-2.7 2.2l-40.5 44-25.4 27.4m139-157.5c-17-6.7-28.7-.7-30.2 15.5-.6 6.2-.3 6.6 6 6.4 2.4-.1 6 1.9 6.9-2.6 1.1-5.2 4.7-6.7 9.4-5.4 6 1.6 11.7 3.7 17.5 5.7 15.2 5.2 25-.5 27.3-16.2.3-2-.4-5.5-1.7-6-4-2-10.3-.3-11.3 2.4-1.9 5.2-5.9 6.2-10.5 5-4.3-1-8.4-3-13.3-4.8z"/><path fill="#ACF" d="M24.4 223.8 49.9 196c13.6-14.6 27-29.4 40.5-44 .6-.7 1.5-1.3 2.7-2.2l16.4 17.5c1 1.5 1.5 2.6 2.3 3.4l24.5 26.5c1.8 1.7 3.5 3 5 4.6l39 41.8c1.2 1.4 3 2.2 4.7 3.7 1.4 2.2 2.5 4.3 4 6 6.6 7.1 13.3 14 19.8 21.2 6.6 7.2 13 14.7 19.4 22-2 .2-4 .5-6 .5l-191.8.1c-5 0-6.4-1.4-6.3-6.4.3-22.2.2-44.3.3-66.9z"/><path fill="#E8F2FF" d="M228.6 296.7c-6.9-7.5-13.2-15-19.8-22.2-6.5-7.2-13.2-14-19.8-21.2a23.7 23.7 0 0 1-3.8-6.3c2.8-3.5 5.4-6.5 8.3-9.2 10 .2 19.7.2 30 .2v-11l.6-22.7 5.7-4.9 67.6 65c.3 10.7.3 21.3.3 32.4l-69-.1z"/><path fill="#0143AB" d="m224 203.8-.5 23.3V238c-10.3 0-20 0-30-.5l-55.2-89.9a9.1 9.1 0 0 0-1.4 5.2v38.9c0 1.7-.5 3.5-.8 5.3l-24.3-26.3c-.8-.8-1.3-1.9-2-3.2l.2-61.8c0-10 0-10 10.1-10 2.9 0 5.8.5 8.5 0 7.4-1.3 11.2 2.2 14.9 8.3 16.1 27 32.7 53.8 49.2 80.7.8 1.3 1.8 2.6 3.8 3.8.1-1.8.3-3.6.3-5.5 0-27.2.1-54.3-.1-81.5 0-4.7 1.5-6 6-5.8 5.5.3 11 .3 16.5 0 3.5-.1 4.7 1.3 4.5 4.7v14.8a19564.8 19564.8 0 0 0 .3 88.6z"/><path fill="#0245AD" d="M164 66c4.5 1.7 8.6 3.6 13 4.7 4.5 1.2 8.5.2 10.4-5 1-2.7 7.2-4.4 11.3-2.5 1.3.6 2 4.1 1.7 6.1-2.3 15.7-12 21.4-27.3 16.2-5.8-2-11.6-4-17.5-5.7-4.7-1.3-8.3.2-9.4 5.4-1 4.5-4.5 2.5-7 2.6-6.2.2-6.5-.2-6-6.4 1.6-16.2 13.3-22.2 30.7-15.4z"/><path fill="#FCFDFF" d="M224.3 160c-.4-14.6-.5-29.3-.4-44.3 3.5-.3 6.9-.8 10-.2 12.4 2.4 20.1 14 18 26.4-2.1 12.5-13.8 20.3-27.6 18.1z"/><path fill="#5598FE" d="M136.3 197.2c0-2 .6-3.8.6-5.5v-39c0-1.5.2-3 1.4-5 18.2 29.7 36.5 59.4 54.8 89.6-2.5 3.2-5.1 6.2-8 9.4-1.7-.9-3.6-1.7-4.9-3.1-13-13.9-25.9-28-38.9-41.8-1.5-1.6-3.2-2.9-5-4.6z"/></svg>
